HIERARCHY
ROOT Hips
{
	OFFSET 0.00000 0.00000 0.00000
	CHANNELS 6 Xposition Yposition Zposition Zrotation Yrotation Xrotation 
	JOINT LHipJoint
	{
		OFFSET 0 0 0
		CHANNELS 3 Zrotation Yrotation Xrotation
		JOINT LeftHip
		{
			OFFSET 1.64577 -1.42384 0.94276
			CHANNELS 3 Zrotation Yrotation Xrotation
			JOINT LeftKnee
			{
				OFFSET 2.11538 -5.81197 0.00000
				CHANNELS 3 Zrotation Yrotation Xrotation
				JOINT LeftAnkle
				{
					OFFSET 2.36541 -6.49893 0.00000
					CHANNELS 3 Zrotation Yrotation Xrotation
					JOINT LeftToe
					{
						OFFSET 0.17759 -0.48793 1.73865
						CHANNELS 3 Zrotation Yrotation Xrotation
						End Site
						{
							OFFSET 0.00000 -0.00000 0.91205
						}
					}
				}
			}
		}
	}
	JOINT RHipJoint
	{
		OFFSET 0 0 0
		CHANNELS 3 Zrotation Yrotation Xrotation
		JOINT RightHip
		{
			OFFSET -1.43750 -1.42384 0.94276
			CHANNELS 3 Zrotation Yrotation Xrotation
			JOINT RightKnee
			{
				OFFSET -2.10480 -5.78291 0.00000
				CHANNELS 3 Zrotation Yrotation Xrotation
				JOINT RightAnkle
				{
					OFFSET -2.34880 -6.45329 0.00000
					CHANNELS 3 Zrotation Yrotation Xrotation
					JOINT RightToe
					{
						OFFSET -0.22842 -0.62757 1.80469
						CHANNELS 3 Zrotation Yrotation Xrotation
						End Site
						{
							OFFSET -0.00000 -0.00000 0.95886
						}
					}
				}
			}
		}
	}
	JOINT lowerback
	{
		OFFSET 0 0 0
		CHANNELS 3 Zrotation Yrotation Xrotation
		JOINT Chest
		{
			OFFSET 0.06217 1.93758 -0.49272
			CHANNELS 3 Zrotation Yrotation Xrotation
			JOINT Chest2
			{
				OFFSET -0.03114 2.03621 -0.05830
				CHANNELS 3 Zrotation Yrotation Xrotation
				JOINT lowerneck
				{
					OFFSET 0 0 0
					CHANNELS 3 Zrotation Yrotation Xrotation
					JOINT Neck
					{
						OFFSET 0.04421 1.41010 0.26562
						CHANNELS 3 Zrotation Yrotation Xrotation
						JOINT Head
						{
							OFFSET -0.13407 1.43847 0.06181
							CHANNELS 3 Zrotation Yrotation Xrotation
							End Site
							{
								OFFSET -0.04980 1.45844 -0.00689
							}
						}
					}
				}
				JOINT LeftCollar
				{
					OFFSET 0 0 0
					CHANNELS 3 Zrotation Yrotation Xrotation
					JOINT LeftShoulder
					{
						OFFSET 2.18382 1.47753 -0.35694
CHANNELS 3 Zrotation Xrotation Yrotation
						JOINT LeftElbow
						{
OFFSET 0 -5.054600 0.000000
CHANNELS 3 Zrotation Xrotation Yrotation
							JOINT LeftWrist
							{
OFFSET 0 -3.390130 0.000000
CHANNELS 3 Zrotation Xrotation Yrotation
								JOINT lhand
								{
									OFFSET 0 0 0
CHANNELS 3 Zrotation Xrotation Yrotation
									JOINT LFingers
									{
OFFSET 0 -0.572420 -0.000000
CHANNELS 3 Zrotation Xrotation Yrotation
										End Site
										{
OFFSET 0 -0.461500 -0.000000
										}
									}
								}
								JOINT LThumb
								{
OFFSET 0 0.000000 0.000000
CHANNELS 3 Zrotation Xrotation Yrotation
									End Site
									{
OFFSET 0 -0.468550 0.468550
									}
								}
							}
						}
					}
				}
				JOINT RightCollar
				{
					OFFSET 0 0 0
					CHANNELS 3 Zrotation Yrotation Xrotation
					JOINT RightShoulder
					{
						OFFSET -2.06033 1.72839 -0.47437
CHANNELS 3 Zrotation Xrotation Yrotation
						JOINT RightElbow
						{
OFFSET 0 -5.070100 0.000000
CHANNELS 3 Zrotation Xrotation Yrotation
							JOINT RightWrist
							{
OFFSET 0 -3.149570 -0.000000
CHANNELS 3 Zrotation Xrotation Yrotation
								JOINT rhand
								{
									OFFSET 0 0 0
CHANNELS 3 Zrotation Xrotation Yrotation
									JOINT RFingers
									{
OFFSET 0 -0.718190 -0.000000
CHANNELS 3 Zrotation Xrotation Yrotation
										End Site
										{
OFFSET 0 -0.579020 -0.000000
										}
									}
								}
								JOINT RThumb
								{
OFFSET 0 0.000000 0.000000
CHANNELS 3 Zrotation Xrotation Yrotation
									End Site
									{
OFFSET 0 -0.587860 0.587860
									}
								}
							}
						}
					}
				}
			}
		}
	}
}
MOTION
Frames: 11
Frame Time: 0.008333333333333333
37.230728 15.284770 13.588920 36.185563 -77.765001 -39.153120 0.000000 0.000000 0.000000 -31.683171 -1.800864 7.816666 0.835953 5.830759 16.294589 1.100335 8.643765 -24.707951 0.346105 -3.779992 -10.458622 0.000000 0.000000 0.000000 19.733409 11.054800 -23.457553 -8.122494 -16.203335 52.994013 -1.371089 -5.594496 -24.775068 -0.380145 3.851664 -10.675607 6.718274 -10.479145 -10.471795 -22.529282 -17.818005 16.432137 -44.657789 -5.162888 17.334374 43.379671 18.726139 -18.380179 9.242155 7.864390 15.857977 -0.342197 5.985063 9.945361 0.000000 0.000000 0.000000 68.334744 -6.020393 4.665713 24.074101 -35.239659 7.750481 27.775056 -8.789656 -17.555004 0.000000 0.000000 0.000000 -7.125000 0.000000 0.000000 -0.196484 49.655057 0.019904 0.000000 0.000000 0.000000 42.077642 -6.135364 74.727653 -16.355385 -26.000234 -3.800414 -16.612544 -21.167587 1.979864 0.000000 0.000000 0.000000 7.125000 0.000000 0.000000 8.006965 31.979355 2.573143
36.835904 15.284127 13.737568 43.879761 -78.469516 -46.518767 0.000000 0.000000 0.000000 -33.174476 -0.196495 10.740546 0.532506 4.664792 12.956764 1.050600 10.103323 -25.473347 0.265565 -3.307643 -9.137082 0.000000 0.000000 0.000000 20.173292 11.692111 -23.843126 -5.824460 -14.242211 44.246373 -1.029348 -9.702009 -24.981578 -0.841255 5.848275 -16.345544 6.129737 -10.452541 -10.571131 -22.696562 -17.693698 16.243381 -44.355487 -5.251672 17.332035 42.392872 18.089816 -18.060079 9.647920 7.374871 16.057954 -0.265107 5.769995 9.884482 0.000000 0.000000 0.000000 68.966725 -5.901522 3.791326 27.097832 -38.265767 9.562219 25.605294 -12.434256 -13.171388 0.000000 0.000000 0.000000 -7.125000 0.000000 0.000000 -1.587597 44.571875 -0.145627 0.000000 0.000000 0.000000 41.739301 -5.762417 74.769257 -16.395990 -26.054650 -3.818220 -16.943046 -20.679860 2.360805 0.000000 0.000000 0.000000 7.125000 0.000000 0.000000 7.780601 32.381694 2.423136
36.429001 15.265577 13.859869 52.341684 -79.028589 -54.176823 0.000000 0.000000 0.000000 -33.753220 2.994025 13.471058 0.195930 2.799474 7.724263 0.708867 10.918956 -23.351219 0.306696 -3.500005 -9.680157 0.000000 0.000000 0.000000 20.491092 13.139328 -24.047709 -4.052849 -12.218671 36.526844 -1.317429 -13.813226 -30.513034 -0.533415 4.599073 -12.782451 5.753314 -10.363361 -11.264380 -22.654377 -17.531164 15.928447 -44.342364 -5.120578 17.702871 41.795106 18.143535 -18.388167 9.944674 7.333443 16.160426 -0.102988 5.759825 9.936102 0.000000 0.000000 0.000000 69.259044 -5.903589 2.952548 29.681065 -40.616055 11.202286 27.185279 -11.899444 -15.211915 0.000000 0.000000 0.000000 -7.125000 0.000000 0.000000 -0.405662 46.977943 0.016929 0.000000 0.000000 0.000000 41.504747 -5.666981 74.676064 -16.436316 -26.108690 -3.835961 -16.711403 -20.446791 2.420368 0.000000 0.000000 0.000000 7.125000 0.000000 0.000000 7.972052 32.437422 2.473876
36.010546 15.239447 13.967426 59.871074 -78.910705 -61.051377 0.000000 0.000000 0.000000 -34.018251 6.570384 17.546472 0.000497 0.080145 0.220219 0.061269 12.433918 -18.455835 0.939652 -6.171324 -17.283195 0.000000 0.000000 0.000000 20.111398 14.723746 -23.915285 -3.054702 -10.779653 31.544061 -2.368858 -15.650839 -37.959136 -0.053959 1.106211 -3.046745 5.363464 -10.398806 -11.878988 -22.704656 -17.580397 15.722922 -44.522011 -5.110904 18.001470 41.721955 18.269900 -18.666794 10.129337 7.240014 16.201424 -0.021045 5.715307 9.982987 0.000000 0.000000 0.000000 69.177509 -5.594312 1.653659 31.600130 -42.223370 12.472262 26.876189 -12.039675 -14.382126 0.000000 0.000000 0.000000 -7.125000 0.000000 0.000000 -0.587930 46.018117 0.013368 0.000000 0.000000 0.000000 41.215138 -5.568104 74.992356 -16.332465 -25.969277 -3.790368 -16.287987 -20.538268 1.724226 0.000000 0.000000 0.000000 7.125000 0.000000 0.000000 8.240351 31.707953 2.703841
35.602803 15.200407 14.068362 66.962444 -78.986584 -67.815494 0.000000 0.000000 0.000000 -33.933120 9.059332 18.293062 0.000000 0.000000 0.000000 0.155734 10.116615 -16.676095 0.971528 -6.273962 -17.581585 0.000000 0.000000 0.000000 19.906720 16.571508 -23.101086 -2.704545 -10.200522 29.628572 -3.057266 -17.837552 -42.830481 -0.004502 0.428300 -1.176814 5.579216 -10.423953 -11.960018 -22.697735 -17.772300 15.663462 -44.685260 -5.280611 17.771316 41.856302 18.582716 -19.079587 9.881643 7.373499 16.391758 -0.050521 5.788654 10.142247 0.000000 0.000000 0.000000 68.397642 -5.024667 0.281975 32.731556 -43.122545 13.238254 25.910981 -10.337691 -14.368381 0.000000 0.000000 0.000000 -7.125000 0.000000 0.000000 -1.490115 45.875520 0.020992 0.000000 0.000000 0.000000 40.414999 -5.564679 76.017680 -16.304925 -25.932382 -3.778312 -15.733978 -19.463982 2.049589 0.000000 0.000000 0.000000 7.125000 0.000000 0.000000 8.715227 32.029427 2.794421
35.174614 15.149214 14.175647 75.318226 -79.108960 -75.827071 0.000000 0.000000 0.000000 -33.770777 11.644448 18.521173 0.012972 0.212012 0.584324 0.104244 8.583295 -14.050191 1.398697 -7.480755 -21.147990 0.000000 0.000000 0.000000 20.240545 15.429699 -22.492696 -2.732948 -10.249677 29.789091 -2.574392 -19.614462 -42.129283 0.000000 -0.003468 0.009607 6.372979 -10.434160 -12.166000 -22.514991 -18.110125 15.588723 -45.106218 -5.474214 17.398248 41.612270 18.973889 -19.686758 9.578024 7.674411 16.684548 -0.032058 5.949027 10.362976 0.000000 0.000000 0.000000 66.555778 -3.979291 -0.506183 32.939365 -43.283290 13.380443 29.744091 -4.404825 -16.370766 0.000000 0.000000 0.000000 -7.125000 0.000000 0.000000 1.974119 48.712396 -0.312876 0.000000 0.000000 0.000000 39.531105 -6.026903 77.036377 -16.006885 -25.529996 -3.648960 -15.032422 -17.876904 2.094352 0.000000 0.000000 0.000000 7.125000 0.000000 0.000000 9.279301 32.057467 2.973240
34.717946 15.129931 14.256594 78.656309 -79.287918 -78.919061 0.000000 0.000000 0.000000 -33.556161 11.324993 12.850185 0.535699 4.629071 12.864761 0.441965 4.827155 -15.277143 1.758062 -8.341235 -23.756391 0.000000 0.000000 0.000000 20.827414 13.514868 -21.491939 -2.783046 -10.335314 30.069470 -2.183891 -21.305395 -41.865745 -0.001748 0.147770 -0.405994 7.536023 -10.694512 -12.456355 -22.192018 -18.859852 15.718000 -45.549926 -5.821886 16.977799 41.101454 18.980934 -19.550752 9.317051 8.089587 16.417245 -0.063459 6.055703 10.240570 0.000000 0.000000 0.000000 64.031814 -2.701659 -1.089438 32.181973 -42.690574 12.864502 20.422931 -6.137029 -9.460958 0.000000 0.000000 0.000000 -7.125000 0.000000 0.000000 -5.731375 39.999547 -0.710346 0.000000 0.000000 0.000000 38.667721 -6.326033 76.521914 -15.670393 -25.071527 -3.505257 -14.671344 -17.312812 1.844555 0.000000 0.000000 0.000000 7.125000 0.000000 0.000000 9.538423 31.793334 3.119605
34.245826 15.164884 14.310274 84.792985 -80.973043 -84.637226 0.000000 0.000000 0.000000 -30.936494 11.918180 7.682282 1.698726 8.160279 23.229382 0.379359 1.818828 -12.434995 2.395751 -9.638285 -27.819402 0.000000 0.000000 0.000000 22.852701 12.760829 -19.957166 -2.686924 -10.169827 29.528721 -1.870421 -19.310532 -38.608163 -0.111473 -2.152164 5.926390 10.157793 -10.818980 -12.759687 -21.411915 -19.757234 15.869604 -46.259350 -6.158945 16.129387 40.840134 19.271603 -19.893475 8.929761 8.487434 16.504423 -0.092084 6.214585 10.347861 0.000000 0.000000 0.000000 60.964514 -1.409158 -0.794472 30.277902 -41.126123 11.593519 18.767256 -4.582714 -8.667143 0.000000 0.000000 0.000000 -7.125000 0.000000 0.000000 -7.045809 39.033862 -1.042021 0.000000 0.000000 0.000000 38.097976 -6.670512 75.666025 -15.074350 -24.249152 -3.256694 -16.076468 -17.462036 2.148473 0.000000 0.000000 0.000000 7.125000 0.000000 0.000000 8.450457 32.142170 2.691375
33.780704 15.187845 14.326667 101.185276 -81.675631 -100.954556 0.000000 0.000000 0.000000 -28.240353 13.208855 2.132486 3.565480 11.528170 34.119942 0.142047 -1.487870 -6.713909 2.762111 -10.299082 -29.951205 0.000000 0.000000 0.000000 24.578858 12.866426 -17.282628 -2.528359 -9.888887 28.617918 -1.545129 -19.533068 -37.183160 -0.111652 -2.154123 5.931742 11.678024 -10.610243 -12.377741 -20.996712 -19.831844 15.866611 -46.241781 -6.293288 15.358873 40.682462 19.563425 -19.828468 8.445818 9.134086 16.426913 -0.154602 6.450790 10.361870 0.000000 0.000000 0.000000 57.760281 -0.101133 -0.321472 27.520604 -38.664775 9.825128 17.758799 -2.866745 -13.185854 0.000000 0.000000 0.000000 -7.125000 0.000000 0.000000 -8.775000 43.625174 -0.289791 0.000000 0.000000 0.000000 37.792309 -6.975481 74.469975 -14.488122 -23.428075 -3.019571 -17.732863 -17.746978 2.918876 0.000000 0.000000 0.000000 7.125000 0.000000 0.000000 7.200514 32.983779 2.134497
33.316845 15.219070 14.306005 121.224234 -81.689775 -121.285766 0.000000 0.000000 0.000000 -25.305147 12.256029 -2.493604 6.015347 14.431331 45.020432 -0.019327 -4.348531 -2.251003 3.287333 -11.145760 -32.773671 0.000000 0.000000 0.000000 26.671506 11.794392 -14.146503 -2.265854 -9.398572 27.050777 -1.216824 -19.004990 -34.902237 -0.132397 -2.345080 6.460298 -3.159302 -0.822022 3.544501 -0.948625 -1.232356 3.624425 0.817181 -0.709501 1.782367 -2.400381 -2.376452 -10.039661 5.501107 -3.879386 14.696227 1.812273 -1.642003 6.266535 0.000000 0.000000 0.000000 6.135481 -3.529332 -35.933015 22.111829 -33.099963 6.648209 18.574616 6.474062 -8.870894 0.000000 0.000000 0.000000 -7.125000 0.000000 0.000000 -7.242891 39.231672 -1.035435 0.000000 0.000000 0.000000 -6.260487 9.196235 31.688238 -17.967474 -28.115417 -4.533923 -17.670332 -21.416340 1.988915 0.000000 0.000000 0.000000 7.125000 0.000000 0.000000 7.162790 32.013933 2.292034
32.887954 15.215855 14.252975 140.184526 -81.568182 -140.655953 0.000000 0.000000 0.000000 -22.334764 8.083587 -6.312464 8.666029 16.584924 54.923203 -0.027549 -5.477557 -2.927266 3.183949 -10.984275 -32.229825 0.000000 0.000000 0.000000 29.515873 12.343179 -9.847339 -1.911933 -8.679865 24.799032 -1.043989 -19.365782 -34.299496 -0.094475 -1.981546 5.454630 -1.422693 -0.672588 4.574737 -0.602328 -1.030701 3.884779 0.211102 -0.579152 1.439836 -1.740801 -2.090046 -10.806660 5.151869 -3.558601 15.107739 1.613496 -1.459684 6.500016 0.000000 0.000000 0.000000 5.701689 -1.207303 -32.654776 18.876281 -29.263084 4.970968 19.608620 6.980269 -7.818305 0.000000 0.000000 0.000000 -7.125000 0.000000 0.000000 -6.210514 38.203588 -1.039132 0.000000 0.000000 0.000000 -5.761458 8.232812 31.366107 -17.843520 -27.956298 -4.475693 -17.259572 -21.867323 1.936353 0.000000 0.000000 0.000000 7.125000 0.000000 0.000000 7.486201 31.949720 2.408689
